HIERARCHY
ROOT Hips
{
	OFFSET -14.64140 90.27770 -84.91600
	CHANNELS 6 Xposition Yposition Zposition Zrotation Xrotation Yrotation
	JOINT Spine
	{
		OFFSET 0.00000 13.20850 -1.60436
		CHANNELS 3 Zrotation Xrotation Yrotation
		JOINT Spine1
		{
			OFFSET 0.00000 8.61716 0.00000
			CHANNELS 3 Zrotation Xrotation Yrotation
			JOINT Spine2
			{
				OFFSET 0.00000 8.61717 0.00000
				CHANNELS 3 Zrotation Xrotation Yrotation
				JOINT Spine3
				{
					OFFSET 0.00000 8.61717 0.00000
					CHANNELS 3 Zrotation Xrotation Yrotation
					JOINT Neck
					{
						OFFSET 0.00000 11.07920 1.10792
						CHANNELS 3 Zrotation Xrotation Yrotation
						JOINT Neck1
						{
							OFFSET 0.00000 7.08032 0.00000
							CHANNELS 3 Zrotation Xrotation Yrotation
							JOINT Head
							{
								OFFSET 0.00000 7.08031 0.00000
								CHANNELS 3 Zrotation Xrotation Yrotation
								End site
								{
									OFFSET 0.00000 0.00000 0.00000
								}
							}
						}
					}
					JOINT RightShoulder
					{
						OFFSET -0.01000 7.91373 5.19711
						CHANNELS 3 Zrotation Xrotation Yrotation
						JOINT RightArm
						{
							OFFSET -18.41580 0.00000 0.00000
							CHANNELS 3 Zrotation Xrotation Yrotation
							JOINT RightForeArm
							{
								OFFSET -29.11090 0.00000 0.00000
								CHANNELS 3 Zrotation Xrotation Yrotation
								JOINT RightHand
								{
									OFFSET -24.65040 0.00000 0.00000
									CHANNELS 3 Zrotation Xrotation Yrotation
									JOINT RightHandThumb1
									{
										OFFSET -5.35114 -0.85590 3.97906
										CHANNELS 3 Zrotation Xrotation Yrotation
										JOINT RightHandThumb2
										{
											OFFSET -4.52789 0.00000 0.00000
											CHANNELS 3 Zrotation Xrotation Yrotation
											JOINT RightHandThumb3
											{
												OFFSET -2.46976 0.00000 0.00000
												CHANNELS 3 Zrotation Xrotation Yrotation
												End site
												{
													OFFSET 0.00000 0.00000 0.00000
												}
											}
										}
									}
									JOINT RightHandIndex1
									{
										OFFSET -14.26970 0.00000 2.88139
										CHANNELS 3 Zrotation Xrotation Yrotation
										JOINT RightHandIndex2
										{
											OFFSET -5.48836 0.00000 0.00000
											CHANNELS 3 Zrotation Xrotation Yrotation
											JOINT RightHandIndex3
											{
												OFFSET -3.01859 0.00000 0.00000
												CHANNELS 3 Zrotation Xrotation Yrotation
												End site
												{
													OFFSET 0.00000 0.00000 0.00000
												}
											}
										}
									}
									JOINT RightHandMiddle1
									{
										OFFSET -14.26970 0.00000 -0.09147
										CHANNELS 3 Zrotation Xrotation Yrotation
										JOINT RightHandMiddle2
										{
											OFFSET -6.17441 0.00000 0.00000
											CHANNELS 3 Zrotation Xrotation Yrotation
											JOINT RightHandMiddle3
											{
												OFFSET -3.56743 0.00000 0.00000
												CHANNELS 3 Zrotation Xrotation Yrotation
												End site
												{
													OFFSET 0.00000 0.00000 0.00000
												}
											}
										}
									}
									JOINT RightHandRing1
									{
										OFFSET -12.69180 0.00000 -3.06433
										CHANNELS 3 Zrotation Xrotation Yrotation
										JOINT RightHandRing2
										{
											OFFSET -5.62556 0.00000 0.00000
											CHANNELS 3 Zrotation Xrotation Yrotation
											JOINT RightHandRing3
											{
												OFFSET -3.56744 0.00000 0.00000
												CHANNELS 3 Zrotation Xrotation Yrotation
												End site
												{
													OFFSET 0.00000 0.00000 0.00000
												}
											}
										}
									}
									JOINT RightHandPinky1
									{
										OFFSET -11.11390 0.00000 -6.03719
										CHANNELS 3 Zrotation Xrotation Yrotation
										JOINT RightHandPinky2
										{
											OFFSET -4.52789 0.00000 0.00000
											CHANNELS 3 Zrotation Xrotation Yrotation
											JOINT RightHandPinky3
											{
												OFFSET -2.46976 0.00000 0.00000
												CHANNELS 3 Zrotation Xrotation Yrotation
												End site
												{
													OFFSET 0.00000 0.00000 0.00000
												}
											}
										}
									}
								}
							}
						}
					}
					JOINT LeftShoulder
					{
						OFFSET 0.01000 7.91373 5.19711
						CHANNELS 3 Zrotation Xrotation Yrotation
						JOINT LeftArm
						{
							OFFSET 18.41580 0.00000 0.00000
							CHANNELS 3 Zrotation Xrotation Yrotation
							JOINT LeftForeArm
							{
								OFFSET 29.11090 0.00000 0.00000
								CHANNELS 3 Zrotation Xrotation Yrotation
								JOINT LeftHand
								{
									OFFSET 24.65040 0.00000 0.00000
									CHANNELS 3 Zrotation Xrotation Yrotation
									JOINT LeftHandThumb1
									{
										OFFSET 5.35114 -0.85590 3.97906
										CHANNELS 3 Zrotation Xrotation Yrotation
										JOINT LeftHandThumb2
										{
											OFFSET 4.52789 0.00000 0.00000
											CHANNELS 3 Zrotation Xrotation Yrotation
											JOINT LeftHandThumb3
											{
												OFFSET 2.46977 0.00000 0.00000
												CHANNELS 3 Zrotation Xrotation Yrotation
												End site
												{
													OFFSET 0.00000 0.00000 0.00000
												}
											}
										}
									}
									JOINT LeftHandIndex1
									{
										OFFSET 14.26970 0.00000 2.88139
										CHANNELS 3 Zrotation Xrotation Yrotation
										JOINT LeftHandIndex2
										{
											OFFSET 5.48836 0.00000 0.00000
											CHANNELS 3 Zrotation Xrotation Yrotation
											JOINT LeftHandIndex3
											{
												OFFSET 3.01859 0.00000 0.00000
												CHANNELS 3 Zrotation Xrotation Yrotation
												End site
												{
													OFFSET 0.00000 0.00000 0.00000
												}
											}
										}
									}
									JOINT LeftHandMiddle1
									{
										OFFSET 14.26970 0.00000 -0.09147
										CHANNELS 3 Zrotation Xrotation Yrotation
										JOINT LeftHandMiddle2
										{
											OFFSET 6.17440 0.00000 0.00000
											CHANNELS 3 Zrotation Xrotation Yrotation
											JOINT LeftHandMiddle3
											{
												OFFSET 3.56744 0.00000 0.00000
												CHANNELS 3 Zrotation Xrotation Yrotation
												End site
												{
													OFFSET 0.00000 0.00000 0.00000
												}
											}
										}
									}
									JOINT LeftHandRing1
									{
										OFFSET 12.69180 0.00000 -3.06433
										CHANNELS 3 Zrotation Xrotation Yrotation
										JOINT LeftHandRing2
										{
											OFFSET 5.62556 0.00000 0.00000
											CHANNELS 3 Zrotation Xrotation Yrotation
											JOINT LeftHandRing3
											{
												OFFSET 3.56744 0.00000 0.00000
												CHANNELS 3 Zrotation Xrotation Yrotation
												End site
												{
													OFFSET 0.00000 0.00000 0.00000
												}
											}
										}
									}
									JOINT LeftHandPinky1
									{
										OFFSET 11.11390 0.00000 -6.03719
										CHANNELS 3 Zrotation Xrotation Yrotation
										JOINT LeftHandPinky2
										{
											OFFSET 4.52789 0.00000 0.00000
											CHANNELS 3 Zrotation Xrotation Yrotation
											JOINT LeftHandPinky3
											{
												OFFSET 2.46976 0.00000 0.00000
												CHANNELS 3 Zrotation Xrotation Yrotation
												End site
												{
													OFFSET 0.00000 0.00000 0.00000
												}
											}
										}
									}
								}
							}
						}
					}
					JOINT pCube4
					{
						OFFSET 0.00000 10.91090 1.10792
						CHANNELS 3 Zrotation Xrotation Yrotation
						End site
						{
							OFFSET 0.00000 0.00000 0.00000
						}
					}
				}
			}
		}
	}
	JOINT RightUpLeg
	{
		OFFSET -9.98441 0.00000 0.00000
		CHANNELS 3 Zrotation Xrotation Yrotation
		JOINT RightLeg
		{
			OFFSET 0.00000 -42.11790 0.00000
			CHANNELS 3 Zrotation Xrotation Yrotation
			JOINT RightFoot
			{
				OFFSET 0.00000 -45.00020 -0.00001
				CHANNELS 3 Zrotation Xrotation Yrotation
				JOINT RightForeFoot
				{
					OFFSET 0.00000 -3.74820 0.00000
					CHANNELS 3 Zrotation Xrotation Yrotation
					JOINT RightToeBase
					{
						OFFSET 0.00000 0.06325 14.43120
						CHANNELS 3 Zrotation Xrotation Yrotation
						End site
						{
							OFFSET 0.00000 0.00000 0.00000
						}
					}
				}
			}
		}
	}
	JOINT LeftUpLeg
	{
		OFFSET 9.98441 0.00000 0.00000
		CHANNELS 3 Zrotation Xrotation Yrotation
		JOINT LeftLeg
		{
			OFFSET 0.00000 -42.11800 0.00000
			CHANNELS 3 Zrotation Xrotation Yrotation
			JOINT LeftFoot
			{
				OFFSET 0.00000 -45.00070 0.00000
				CHANNELS 3 Zrotation Xrotation Yrotation
				JOINT LeftForeFoot
				{
					OFFSET 0.00000 -3.74824 0.00000
					CHANNELS 3 Zrotation Xrotation Yrotation
					JOINT LeftToeBase
					{
						OFFSET 0.00000 0.06325 14.43110
						CHANNELS 3 Zrotation Xrotation Yrotation
						End site
						{
							OFFSET 0.00000 0.00000 0.00000
						}
					}
				}
			}
		}
	}
}
MOTION
Frames: 4
Frame Time: 0.050000
0.022785352242770656 0.0032236402617439176 0.021939510679658353 -0.015153381978764844 -0.034559886333483135 0.01149016858729862 -3.9858234602786258 0.6916804591823519 -0.7236615871789425 -1.1396218943698295 3.527403162096941 0.3623821043922459 -1.2362703544870446 -2.3963720592557034 -2.2210000803845324 -1.5907539294785915 0.2652732791743967 -0.8907654035238609 -1.3605970412105681 13.248185154657541 5.098279902539762 0.44612936943338344 -0.1648115107871536 12.320278072324616 -1.0437711792043485 -15.58129614233809 0.9718378240997017 -6.411698901616037 2.4237753453195374 -15.475317394070881 68.29633284422859 13.86291547106289 -2.6689904646529063 -11.37756108943945 -2.5726642685513372 90.45231054910366 25.862143840336085 -0.5793566029265417 -6.4330289278158705 4.4933905071199405 -0.13060320681284504 -1.6070839049589258 -0.017813170980115155 -0.028778792823315393 -56.27015414797608 0.03790672344027237 -0.0399743404581773 -56.23038882696169 -38.74176255233472 -0.04991712200795015 0.005235303661529582 0.04427274403518612 -0.03630988502437538 0.019338603095500267 0.04602729987549624 0.04698579087769514 -0.00582079051065503 -36.65889411011182 -0.044496095105820144 0.021978342690865724 -0.04936113767979253 -0.03170772401152252 -0.012780110997018503 0.020702521889453825 0.04998326314283456 0.020828252565928913 -19.79285064602347 0.02704603051403706 -0.022552174045980363 -0.04278480915682416 -0.009665506546522127 0.02077520582641057 0.01851276323084012 -0.002141079597757907 -0.03695706591159979 24.013389294524735 0.024576883355718834 -0.006398933030161988 28.86139946326798 0.03461440594688282 -0.005114286379705044 28.836517747802144 0.020730560750310243 -0.02797259089334037 9.460264384087584 2.1171432197552087 12.970155917348096 -70.78749567849007 31.18552279620355 -9.51808503003503 -12.781098762060203 -9.691722977388645 -64.5451969587388 -12.501759532030304 -2.901802579736686 3.7444879591999713 -0.4537954058549516 0.0922842512343907 -8.147469134919547 0.0079193518374302 0.006906715954888784 44.52874541316558 0.0135714380484224 -0.03253310793427838 44.57555533643505 12.480845604486912 -0.005820025179184363 -0.031866934321868 0.01874512632828533 -0.04417944325125221 0.006049797828734548 0.006670814503128325 0.028593629476166175 -0.03840773198202072 11.090918964186232 0.023463127183920306 -0.029153150630160694 -0.03629209442803516 0.010630250026382205 -0.024283038000545744 -0.04241374693486835 -0.048972710384818575 0.03845657289321864 4.7252259084874195 0.008790142653479414 -0.04712666205960408 -0.02923959999460588 0.029364844351042814 0.024910191815005246 0.023486349761883685 -0.008840624817089623 -0.018007128826471094 -5.5548153657347346 -0.027840370928253866 -0.027560423841736695 -6.712219273644569 0.04400338187340485 0.005159380684301947 -6.677677449026188 -0.04638381301457673 0.026756396191988788 0.017343328310666786 0.015529787668334995 -0.02645341805488177 8.033042171416897 3.494573520179923 -19.2653745908365 0.013248855808975031 10.423454492093336 -0.034973434464677974 -5.599403019672321 -15.665594863686833 3.1424884446027956 0.019031935974640958 0.025420951034160092 -0.01698684361813792 0.01441427943753077 4.693205806614983 -0.03937888318164997 12.461301621199077 -8.20304257680924 6.855479841032197 0.019481054975736052 46.396415826898924 0.044942444902909946 -4.3020234704780815 -14.77727826086267 -3.7868877286802567 -0.005237752442494132 -0.04585963437076492 -0.02984955822013584 -0.045530619244792854 -10.764395927964886 -0.027483719889047988 
0.04437528458223284 -0.028245237536029123 0.03618934010793776 -0.03170110386278246 0.018979604483156384 -0.04569520148641554 -3.666245571536722 0.5823941372460116 -0.7958120215315878 -1.0755899521341639 3.5556378678903995 0.32413081129867866 -1.2255508528054706 -2.3862374128746517 -2.357383442760076 -1.5123315612849781 0.22947874715659083 -0.8900378590860812 -1.365889676575343 13.341342218997072 5.108596380509439 0.42468297628107854 0.013490902907856692 12.321346234789576 -1.1055182185175045 -15.172368256880608 1.0193300968672396 -6.483866649164037 2.4656458458638304 -15.441132991682688 67.49688945342389 14.91481301173936 -2.2262276883460044 -14.811848529681832 -2.937734949836586 91.1861302111758 25.96087676382553 -0.5976581069517206 -6.83004930211552 4.547817324720651 -0.13533208360146864 -1.6277683945918238 -0.02441671656179164 0.022092255380845506 -56.264478426573284 0.014333225042065174 -0.04021845503009252 -56.207656670331104 -38.775962997222344 -0.005311536860492624 0.04561075809193783 0.022368404552342125 0.006588038407539198 -0.035857557640913064 -0.015007051177188625 -0.01679054101472062 0.036468046931355184 -36.72002744131847 -0.002602079327571437 0.010044263532929953 -0.026042687442295924 -0.0046524558736565115 -0.005340588570966076 -0.02410160533006263 0.038938918654418016 0.009168814498494828 -19.77190443830066 -0.006175279859688429 -0.01406354417045518 0.01620456068144234 0.04473061249131509 -0.03252006596791028 0.0027001600690431415 0.013519972908144056 -0.033968108654767765 24.05976443578339 0.04065403893951501 0.016061266910502674 28.874851501227184 -0.0023697658092634317 0.030542246072491015 28.90429366193796 0.038222290480438535 0.04297110275572051 9.625294309506216 2.1293607795394554 12.920435587909457 -70.67683097098542 30.541789642203298 -10.843097857976538 -12.261849586960292 -10.89931719146691 -65.30960270500968 -12.57459937003723 -3.570116909447522 4.1889484188566195 -0.4646992480299642 0.10227631620907318 -8.173722760785033 -0.024163554059581035 0.012751376982478184 44.57266696007465 -0.009368251219631344 0.034233004290323235 44.51847251108201 12.4311295892961 0.021229701743636167 -0.004894901045036788 0.027620166593611307 0.018913124870946582 -0.03758887416965789 -0.026809573946904672 -0.03553388794132412 0.013359860102405377 11.078197740852982 0.026958275171602 0.037698004491224006 -0.005823108232201481 -0.03962430020548742 -0.0003714259539280519 -0.0011812774361637836 -0.03134113475720479 -0.026005697379101828 4.788327221064393 -0.019180113838869216 0.028460778236307993 0.016845157784092776 0.019281649482693577 -0.028464089139865187 0.024625089652662597 -0.042269317951258475 -0.037183374331685747 -5.6101212301778 0.04012020336285942 -0.02172939964660923 -6.7252150097477985 0.01636001904469794 -0.016247415685248588 -6.737422451374245 0.020663089489599277 0.001381529115376091 -0.04995865718735915 -0.016415519038617984 0.019492131122087468 8.077580967111166 3.4936148581126982 -19.223785595062214 0.0009011554944069713 10.386921002548682 -0.008404366530146395 -5.632913145391465 -15.612325038947297 3.157542117889702 -0.03777180980859276 0.00788741835171713 -0.013766601942704343 0.036153051645476525 4.728409795652766 0.0012632740908293863 12.45746741743694 -8.204111086131554 6.891872617986442 0.03781954705233916 46.400883505513654 0.005091428882393223 -4.288343138470504 -14.720899885681238 -3.849581464761847 0.012040374644314311 0.03422888160380097 -0.0011885424084740381 -0.048720855756471323 -10.734059378675367 0.021955583390799692 
-0.032437795404274654 -0.0025190474129231574 -0.005853428737930243 0.018941759126440597 -0.012145908224014722 0.0015059603346447685 -3.4053241748528835 0.5163886157396217 -0.7614319178248384 -1.0938555070048233 3.4941505679244873 0.41383627549324786 -1.2476043811853603 -2.360429971399562 -2.3178985995955674 -1.4400329448089764 0.23614199483778014 -0.9212026382173731 -1.309594026836948 13.331086626336047 4.896928894896636 0.4121848215191348 0.25309029730515087 11.648634351700771 -1.0809129684339034 -14.84113365396163 0.9468867225741179 -6.450113537607927 2.407941170045822 -15.430829891407956 66.9589316772254 16.387161754724996 -1.5999514946791191 -17.479499716626453 -2.9357264207202918 91.83382141810122 26.154488099987272 -0.5772965159108695 -7.149144208092224 4.521766796321982 -0.1322601638699529 -1.6201189823853654 0.003952999437406639 -0.0006165462025109825 -56.23395139150014 -0.015129950550460918 0.039116940562987514 -56.20589973053555 -38.76462739662356 0.04739226645213823 0.014152081205494878 -0.017012576579487286 0.04638836970906288 -0.033354422861839726 0.03131940090013254 -0.03744931061868787 -0.02432876006678424 -36.73006057986621 -0.04795621204922603 0.0034421562920470645 -0.016610260127519906 0.005947674496080448 0.041262505528018356 -0.03417537028474061 0.01936064284667602 0.012942151190575046 -19.756981355865417 -0.008789712623775222 -0.0343215632527689 -0.009259441243257567 -0.002075285367414563 -0.03204003777706211 -0.010268691781402382 -0.0215552955511742 0.02912778123905975 24.014890971069583 0.010619022336501338 -0.013598107055522215 28.893464361785867 -0.004585723463138828 0.0024701147164123967 28.868302992713037 0.024558705114228026 -0.04082111603037503 9.656109109252505 2.143923696486819 12.871653314035076 -70.33886292586384 30.365828108479317 -11.516709764150976 -12.37630814445949 -11.119566033317138 -66.27588217735867 -13.115132820147009 -4.315100740050538 4.709152138603132 -0.45068025914750875 0.07614575577152465 -8.16611656103885 0.010204288967709361 0.017229896272867366 44.56657113743512 0.02830696514567222 0.008046807485348762 44.60988785700712 12.439025602362111 0.0496313940678297 0.010558643390547068 -0.040124474648328835 0.02756373614495066 -0.02221362916086626 -0.03726011011546312 -0.028793247195077552 0.04295527352253985 11.078045122582848 0.001338259931101756 -0.019420191092018976 0.022761134966530698 -0.026310772584572543 0.01602555912335173 -0.035997169708972064 -0.03966183916922927 -0.018532972285105122 4.8201060112952385 0.01803217818371261 -0.033257291586264906 -0.010413147534306692 0.004726517136958752 0.030479081286591974 -0.0344925656708044 -0.036217650369376665 -0.03840960031666037 -5.578378144769112 0.026261903785308526 -0.04723027025717386 -6.73010795508775 0.030258737546139673 0.04991011386110185 -6.763195210814387 0.026237760135444644 0.015399618439705555 -0.04732268241186189 0.024325838036287604 0.03122101713642292 8.054855394521418 3.520230831619039 -19.17752381023354 0.03733250967640937 10.361714195804575 0.03209189103596072 -5.586805527030786 -15.64971353618279 3.1663420881674633 -0.013250541468319691 0.029488509547956655 0.025650105481678148 0.0035559367532903676 4.695611050058564 -0.02269606061905447 12.432002151512846 -8.236397156526543 6.875751185217077 0.04488854607423523 46.35843558292492 -0.0037700060193325046 -4.286932246954271 -14.74804135138642 -3.822169844266447 0.017090221230609902 0.015379300769852937 0.009072940588311136 0.03189675274672794 -10.785203589603302 0.03690157421333325 
0.037106191761696175 0.03180907185431335 0.003982119997130445 -0.01557486221709708 0.006493244419801671 0.045721779335796145 -3.0758987958836235 0.4658785504088798 -0.8002205103461034 -0.9813192884992123 3.487924054907259 0.3877191262654523 -1.198143951044582 -2.2926833654134757 -2.1673342741810524 -1.2990299932854268 0.27152581225061806 -0.8435608497659665 -1.1444753983294518 13.352943334174505 4.351618233824865 0.3499650751344467 0.48043680547609613 10.567582823700276 -0.964089367185069 -14.393852143351873 0.8449296994547879 -6.303982774517018 2.4258491501783896 -15.310606623947516 66.74257842320266 18.37283308235432 -0.8620577300731844 -19.067807012894274 -2.759958688166171 92.6571535946742 26.366409005898106 -0.5619214991903753 -7.551306829080742 4.573460306068794 -0.14010746839800398 -1.6331182067788865 -0.00040917695123901835 0.01049319789285927 -56.269941423791295 -0.040957196221453045 0.0021052303603236147 -56.27792344940007 -38.777205592535566 -0.0005972859260730223 -0.006988083270253311 -0.0231893643317192 0.04465272238930051 -0.015820242726243692 0.015604779485538962 0.011766532422266688 0.0445608183049486 -36.660646648679396 0.024616523544074242 -0.007180252158963466 -0.005839626698975826 -0.016082008023574092 -0.012976168634294395 0.017892314932358294 0.027043490578255062 0.04760646465714743 -19.744701023767092 -0.03911219464529514 -0.01603802427935279 0.022939156750342516 -0.02544674936869594 0.03957720415826664 -0.022788839243348423 0.0011213699287651916 -0.044669250164797766 24.052190977812238 -0.048629093222280345 -0.035720065460451554 28.883242093510674 -0.039916506689419914 -0.00312749962347736 28.868595407730673 0.02432556177147886 -0.011370324391740388 9.371873520697847 2.1378335697166366 12.871345963653024 -70.09597463298728 30.400447981650498 -11.682326307290094 -12.874990443892093 -10.842376639720637 -66.78048164265641 -13.648549350665817 -4.831158598343978 5.065864807589096 -0.45534785963300917 0.08457600897389156 -8.082365000185666 0.026682044325634625 -0.012675074793591326 44.53344421729473 0.008951539712323802 -0.04101745034591423 44.56650973090123 12.498239794812262 -0.01835651196394233 -0.04557449325132949 0.015920929639184452 -0.028705008786755963 -0.006075051679013395 0.0014285361478781496 0.03596057218373278 -0.0470862900270473 11.116221037167854 0.0013019932004041132 0.044687938040757165 0.0015158355854229465 0.043840595268337945 0.044914186207744136 0.006634421351196603 -0.002798880425617408 -0.007118053469761299 4.776980703793405 -0.0101970207596597 0.030884229648704627 -0.0343258793487859 0.02004320207794156 -0.0025690464136181226 0.03634292520041378 -0.03823029141648503 -0.004742607645850733 -5.588146117443109 -0.02166526709027329 -0.03873687493932099 -6.7551035670452855 -0.01231587639550073 -0.010380702859993126 -6.734058804938024 -0.009388152425370434 -0.017759783277691572 0.000522056518636846 0.009810790697886908 0.017533070304376078 8.057748543026124 3.5044158245252035 -19.21897555950246 0.04417890873324252 10.4146909976097 0.0429645287891305 -5.664079283605325 -15.704335725400767 3.172106465732333 0.049626739369919605 0.023973825073482034 -0.049875005908835465 -0.013990419021366983 4.654644876543728 -0.014327000458156006 12.469822175451213 -8.205204060385665 6.8663077264714065 0.02553188623005025 46.352011752872016 -0.039839362458892705 -4.3133519274445895 -14.740323405086023 -3.82979600295714 -0.013922360061009999 0.003594162425156858 -0.04661673036223276 0.00682093568216493 -10.775848897860271 -0.0066437281144939376 
